<svg width="24" height="24" viewBox="0 0 24 24" fill="none" xmlns="http://www.w3.org/2000/svg">
<path d="M12.3751 20.25H4.47194C4.37679 20.2513 4.28236 20.2334 4.1942 20.1976C4.10605 20.1618 4.02597 20.1087 3.95869 20.0414C3.8914 19.9741 3.83828 19.894 3.80244 19.8059C3.76661 19.7177 3.7488 19.6233 3.75006 19.5281V11.625C3.75006 9.33751 4.65877 7.14371 6.27627 5.5262C7.89377 3.9087 10.0876 3 12.3751 3C13.5077 3 14.6293 3.22309 15.6757 3.65654C16.7221 4.08999 17.673 4.7253 18.4739 5.5262C19.2748 6.32711 19.9101 7.27792 20.3435 8.32436C20.777 9.37079 21.0001 10.4923 21.0001 11.625C21.0001 12.7577 20.777 13.8792 20.3435 14.9256C19.9101 15.9721 19.2748 16.9229 18.4739 17.7238C17.673 18.5247 16.7221 19.16 15.6757 19.5935C14.6293 20.0269 13.5077 20.25 12.3751 20.25Z" stroke="#FFFFFF" stroke-width="1.5" stroke-linecap="round" stroke-linejoin="round"/>
<path d="M13.4531 12C13.4531 12.5954 12.9704 13.0781 12.375 13.0781C11.7796 13.0781 11.2969 12.5954 11.2969 12C11.2969 11.4046 11.7796 10.9219 12.375 10.9219C12.9704 10.9219 13.4531 11.4046 13.4531 12Z" fill="#FFFFFF" stroke="#FFFFFF" stroke-width="0.09375"/>
<path d="M8.95312 12C8.95312 12.5954 8.47043 13.0781 7.875 13.0781C7.27957 13.0781 6.79688 12.5954 6.79688 12C6.79688 11.4046 7.27957 10.9219 7.875 10.9219C8.47043 10.9219 8.95312 11.4046 8.95312 12Z" fill="#FFFFFF" stroke="#FFFFFF" stroke-width="0.09375"/>
<path d="M17.9531 12C17.9531 12.5954 17.4704 13.0781 16.875 13.0781C16.2796 13.0781 15.7969 12.5954 15.7969 12C15.7969 11.4046 16.2796 10.9219 16.875 10.9219C17.4704 10.9219 17.9531 11.4046 17.9531 12Z" fill="#FFFFFF" stroke="#FFFFFF" stroke-width="0.09375"/>
</svg>
